<svg xmlns="http://www.w3.org/2000/svg" version="1.1" xmlns:xlink="http://www.w3.org/1999/xlink" xmlns:svgjs="http://svgjs.dev/svgjs" width="100%" height="100%" viewBox="0 0 1000 600"><rect width="1000" height="600" x="0" y="0" fill="#533549"/><g><rect width="333.3333333333333" height="333.3333333333333" rx="13.333333333333334" ry="13.333333333333334" y="184.7556532618577" fill="#f6b042" transform="matrix(0.7690725678299097,0,0,0.76907256782991,0,29.73073372880137)" x="162.53346252441403"/><path d="M271.9583626256164 418.11329354121114Q285.0154220596637 416.52020734232025 292.66848321119863 412.02208160427523L292.66848321119863 412.02208160427523L292.66848321119863 290.5726866770599Q284.79676316961985 286.0745609390149 270.61517230106125 284.5127117244159L270.61517230106125 284.5127117244159L271.7397037355725 276.42233279279327L329.99667944011384 276.42233279279327Q355.86090243387264 276.42233279279327 368.66806599358415 285.98084998613894Q381.5064665375876 295.5393671794846 381.5064665375876 313.7505290217085L381.5064665375876 313.7505290217085Q381.5064665375876 339.3960931254234 355.1736887794491 346.79925840262257L355.1736887794491 346.79925840262257Q370.6984699725628 351.29738414066753 379.2574036685651 360.8559013340132Q387.7851003802755 370.41441852735886 387.7851003802755 384.1274546315377L387.7851003802755 384.1274546315377Q387.7851003802755 403.71304378260874 374.1970122132645 415.05206908059716Q360.5776870619615 426.4223313628776 336.0566543927578 426.4223313628776L336.0566543927578 426.4223313628776L270.83383119110516 426.4223313628776L271.9583626256164 418.11329354121114ZM330.43399722020155 341.86381488448984Q346.6459920677388 341.86381488448984 354.2678162349817 335.1166262774223Q361.9208773865166 328.3694376703548 361.9208773865166 314.1878468017962L361.9208773865166 314.1878468017962Q361.9208773865166 300.03749291752956 354.17410528210576 293.38401526333803Q346.39609619340297 286.7617745934384 329.77802055007 286.7617745934384L329.77802055007 286.7617745934384Q322.3436182885789 286.7617745934384 312.4414942680215 287.6676471379058L312.4414942680215 287.6676471379058L312.4414942680215 341.86381488448984L330.43399722020155 341.86381488448984ZM336.0566543927578 415.395675907809Q351.5814355858715 415.395675907809 359.45315562745026 407.4302449133542Q367.32487566902904 399.4335769346076 367.32487566902904 384.37735050587355L367.32487566902904 384.37735050587355Q367.32487566902904 369.2898870928476 357.98501736572723 361.07456022405705Q348.6451590624254 352.8904703395585 330.2153383301577 352.8904703395585L330.2153383301577 352.8904703395585L312.4414942680215 352.8904703395585L312.4414942680215 414.48980336334154Q321.9063005084912 415.395675907809 336.0566543927578 415.395675907809L336.0566543927578 415.395675907809Z " fill="#533549" transform="matrix(0.7690725678299097,0,0,0.76907256782991,0,29.73073372880137)"/><path d="M618.6239688854544 426.4223313628776Q607.5249160714678 426.4223313628776 595.9227061965806 422.6930496173781Q584.2908988475227 418.96376787187864 579.2001332901742 415.3528760230617L579.2001332901742 415.3528760230617L579.2001332901742 380.39825902754677L589.6184441982363 379.3327499574041Q590.9207330617439 389.57347602044234 592.5189966669581 396.5880773988818Q594.1172602721721 403.63227625149193 597.3137874826002 410.8836574232965L597.3137874826002 410.8836574232965Q607.9688781840273 415.76724066145056 621.5837163025175 415.76724066145056L621.5837163025175 415.76724066145056Q633.5410958674523 415.76724066145056 640.8812694617687 409.1670039213999Q648.2214430560851 402.56676718134923 648.2214430560851 390.84616740977947L648.2214430560851 390.84616740977947Q648.2214430560851 382.52927716783216 644.0777966721968 376.7873671787298Q639.9341502883085 371.0158597154568 633.8370706091586 367.5233577633224Q627.7695884041792 364.0012583370173 617.5584598153117 359.7392220564465L617.5584598153117 359.7392220564465Q606.0450423629362 354.8260413441218 598.6752712944492 350.238432847674Q591.3350977001328 345.6804218253969 586.2147346686137 337.896286118521Q581.0943716370945 330.1121504116451 581.0943716370945 318.59873295926974L581.0943716370945 318.59873295926974Q581.0943716370945 301.343405517792 592.7261789861524 291.10267945475374Q604.3283888610397 280.8915508658861 625.0170233063105 280.8915508658861L625.0170233063105 280.8915508658861Q635.6721140077376 280.8915508658861 644.9361234231452 284.5024427147031Q654.2001328385526 288.1429320376907 659.6460680859486 294.2992066651818Q665.062405859174 300.4850787668437 665.062405859174 307.9436422578426L665.062405859174 307.9436422578426Q665.062405859174 321.5880778505034 654.4073151577469 321.5880778505034L654.4073151577469 321.5880778505034Q649.5237319195929 321.5880778505034 646.8599592442362 320.1082041419719Q644.1961865688794 318.59873295926974 642.0651684285939 315.609388068036L642.0651684285939 315.609388068036Q646.5343870283592 311.14016946827076 646.5343870283592 304.7471150474145L646.5343870283592 304.7471150474145Q646.5343870283592 299.21238737750656 640.7628795650861 295.4831056320071Q635.0209695759838 291.7538238865076 624.7802435129455 291.7538238865076L624.7802435129455 291.7538238865076Q612.8524614221814 291.7538238865076 606.1338347854481 297.28855155641554Q599.4448056228856 302.8232792263235 599.4448056228856 313.2711876085562L599.4448056228856 313.2711876085562Q599.4448056228856 320.93693341874956 603.3812696875794 326.05729645026867Q607.3177337522734 331.17765948178777 613.0596437413758 334.49257658889843Q618.8311512046488 337.77789622183843 629.0422797935164 342.0399325024093L629.0422797935164 342.0399325024093Q641.41402399684 347.3674778531228 649.0797698070334 352.0734762462531Q656.7455156172267 356.7498771652128 662.1914508646229 365.1555598296719Q667.6373861120189 373.5908399683017 667.6373861120189 386.3769488100142L667.6373861120189 386.3769488100142Q667.6373861120189 405.7632943917773 654.2001328385526 416.0928128773275Q640.7628795650861 426.4223313628776 618.6239688854544 426.4223313628776L618.6239688854544 426.4223313628776ZM722.8070779660748 426.4223313628776Q698.7443314653519 426.4223313628776 688.2964230831192 413.3402477794588Q677.8485147008867 400.2285667218694 677.8485147008867 374.2123869258849L677.8485147008867 374.2123869258849Q678.292476813446 349.0841313550194 689.7762967916508 336.29802251330693Q701.2897142440261 323.5119136715944 723.665404717023 323.5119136715944L723.665404717023 323.5119136715944Q738.3753493798265 323.5119136715944 747.4321764760396 329.78657819576813Q756.4890035722526 336.0908401941125 756.4890035722526 346.09478646378574L756.4890035722526 346.09478646378574Q756.4890035722526 351.0079671761104 753.174086465142 354.8260413441218Q749.8887668322018 358.67371298630377 745.1827684390717 358.67371298630377L745.1827684390717 358.67371298630377Q741.1575119518659 358.67371298630377 738.1681670606322 356.5426948460184Q735.1788221693985 354.411676705733 734.1133130992557 351.0079671761104L734.1133130992557 351.0079671761104Q736.8954756712949 346.50915110217454 736.8954756712949 343.31262389174645L736.8954756712949 343.31262389174645Q736.8954756712949 337.77789622183843 733.2549863483073 334.49257658889843Q729.6440944994904 331.17765948178777 723.665404717023 331.17765948178777L723.665404717023 331.17765948178777Q708.5410954158306 331.17765948178777 703.0951601684346 342.69107693416316Q697.6788223952092 354.20449438653856 697.6788223952092 374.2123869258849L697.6788223952092 374.2123869258849Q697.6788223952092 388.06400483774013 699.4842683196177 396.82485719224684Q701.2897142440261 405.55611207258295 706.9428318106166 410.76526752661397Q712.595949377207 416.0040204548156 723.8725870362175 416.0040204548156L723.8725870362175 416.0040204548156Q731.7751126397759 416.0040204548156 738.9081039148978 413.1034679860938Q746.0410951900199 410.2325129915426 750.9542759023445 405.9704767109718L750.9542759023445 405.9704767109718L756.4890035722526 412.363531131828Q750.5103137897852 418.3422209142954 741.6902664869372 422.3970748756719Q732.8406217099187 426.4223313628776 722.8070779660748 426.4223313628776L722.8070779660748 426.4223313628776ZM768.8607477755761 417.2767118441527Q773.7443310137303 416.41838509320445 776.733675904964 415.3528760230617Q779.7230207961977 414.287366952919 782.9195480066257 411.7419841742448L782.9195480066257 411.7419841742448L782.9195480066257 351.0079671761104Q782.9195480066257 343.105441572552 779.6046308995151 340.2344865780008Q776.3193112665751 337.3635315834496 768.0024210246279 336.91956947089017L768.0024210246279 336.91956947089017L768.6239679822111 330.76329484339897Q775.2538021964324 329.46100597989124 787.5959489255854 325.64293181187986L787.5959489255854 325.64293181187986L794.6401477781956 323.5119136715944L798.458221946207 325.43574949268543L800.5892400864923 340.35287647468334Q805.5024207988172 332.89431298368436 812.1026575388678 328.1883145905541Q818.7028942789184 323.5119136715944 826.1614577699174 323.5119136715944L826.1614577699174 323.5119136715944Q833.8568010542813 323.5119136715944 839.4803211467013 327.9811322713597Q845.1334387132918 332.4503508711249 845.1334387132918 340.76724111307215L845.1334387132918 340.76724111307215Q845.1334387132918 346.09478646378574 842.0553013995461 350.1496404251621Q838.94756661163 354.20449438653856 833.8568010542813 354.20449438653856L833.8568010542813 354.20449438653856Q830.2163117312937 354.20449438653856 827.0197845208656 352.3694509879594Q823.8232573104376 350.56400506355095 822.9649305594892 347.57466017231724L822.9649305594892 347.57466017231724Q823.8232573104376 346.7459308955396 824.4744017421915 344.91088749696047Q825.0959486997747 343.105441572552 825.0959486997747 341.62556786402047L825.0959486997747 341.62556786402047Q825.0959486997747 335.23251344316424 819.146856391478 335.23251344316424L819.146856391478 335.23251344316424Q815.2991847492958 335.23251344316424 811.037148468725 339.28736740454065Q806.7751121881543 343.31262389174645 803.9041571936029 349.61688589009077Q801.0332021990519 355.8915504142645 801.0332021990519 362.2846048351207L801.0332021990519 362.2846048351207L801.0332021990519 411.7419841742448Q806.7751121881543 415.5600583422561 817.8741650021407 417.6910764825415L817.8741650021407 417.6910764825415L817.0158382511925 424.94245765434613L768.0024210246279 424.94245765434613L768.8607477755761 417.2767118441527ZM893.9396736206618 426.4223313628776Q871.5639831476651 426.4223313628776 860.1689555919722 413.2218578827763Q848.7739280362794 400.021384402675 848.7739280362794 374.8635313576388L848.7739280362794 374.8635313576388Q848.7739280362794 349.70567831260263 860.1689555919722 336.6235947291839Q871.5639831476651 323.5119136715944 893.9396736206618 323.5119136715944L893.9396736206618 323.5119136715944Q916.3153640936587 323.5119136715944 927.7103916493515 336.6235947291839Q939.1054192050444 349.70567831260263 939.1054192050444 374.8635313576388L939.1054192050444 374.8635313576388Q939.1054192050444 400.021384402675 927.7103916493515 413.2218578827763Q916.3153640936587 426.4223313628776 893.9396736206618 426.4223313628776L893.9396736206618 426.4223313628776ZM893.9396736206618 416.6255674123989Q907.7912915325171 416.6255674123989 914.0659560566908 406.82880346192Q920.3702180550351 397.03203951144127 920.3702180550351 374.8635313576388L920.3702180550351 374.8635313576388Q920.3702180550351 352.69502320383634 914.1843459533734 343.0166491500401Q907.9984738517114 333.3086776220732 893.9396736206618 333.3086776220732L893.9396736206618 333.3086776220732Q880.0880557088067 333.3086776220732 874.0205735038273 343.0166491500401Q867.953091298848 352.69502320383634 867.953091298848 374.8635313576388L867.953091298848 374.8635313576388Q867.953091298848 397.03203951144127 874.0205735038273 406.82880346192Q880.0880557088067 416.6255674123989 893.9396736206618 416.6255674123989L893.9396736206618 416.6255674123989ZM951.4771634083681 417.06952952495834Q956.3903441206928 416.41838509320445 959.3500915377558 415.3528760230617Q962.3394364289895 414.287366952919 965.5359636394178 411.7419841742448L965.5359636394178 411.7419841742448L965.5359636394178 304.1255680898313Q965.5359636394178 296.22304248627285 962.3394364289895 293.35208749172165Q959.1429092185615 290.4811324971705 950.6188366574197 290.03717038461104L950.6188366574197 290.03717038461104L951.2699810891736 283.64411596375476Q959.5868713311208 282.37142457441763 968.6436984273339 279.70765189906086Q977.700525523547 277.0438792237041 979.5947638704674 276.42233226612086L979.5947638704674 276.42233226612086L983.6496178318437 278.55335040640625L983.6496178318437 411.7419841742448Q988.9771631825572 415.76724066145056 998.5667448138418 417.4838941633471L998.5667448138418 417.4838941633471L997.7084180628933 424.94245765434613L950.6188366574197 424.94245765434613L951.4771634083681 417.06952952495834ZM1009.2218355152688 417.06952952495834Q1014.1350162275935 416.41838509320445 1017.1243611188272 415.3528760230617Q1020.0841085358902 414.287366952919 1023.2806357463185 411.7419841742448L1023.2806357463185 411.7419841742448L1023.2806357463185 304.1255680898313Q1023.2806357463185 296.22304248627285 1020.0841085358902 293.35208749172165Q1016.8875813254622 290.4811324971705 1008.3635087643206 290.03717038461104L1008.3635087643206 290.03717038461104L1009.0146531960743 283.64411596375476Q1017.3315434380215 282.37142457441763 1026.3883705342346 279.70765189906086Q1035.4451976304476 277.0438792237041 1037.3690334515386 276.42233226612086L1037.3690334515386 276.42233226612086L1041.3942899387444 278.55335040640625L1041.3942899387444 411.7419841742448Q1046.7218352894579 415.76724066145056 1056.3114169207424 417.4838941633471L1056.3114169207424 417.4838941633471L1055.4826876439647 424.94245765434613L1008.3635087643206 424.94245765434613L1009.2218355152688 417.06952952495834ZM1099.5829241582046 426.2151490436832Q1092.1243606672056 426.2151490436832 1082.4163891392386 423.75855868752086Q1072.7380150854424 421.3315658055291 1067.824834373118 418.135038595101L1067.824834373118 418.135038595101L1067.824834373118 391.91167647992216L1079.131069506299 390.4318027713906Q1079.9893962572469 399.3702399709211 1081.1436977499015 404.5793954249521Q1082.327596716727 409.81814835315373 1084.872979495401 414.49454927211343L1084.872979495401 414.49454927211343Q1091.709996028817 416.6255674123989 1101.299577660101 416.6255674123989L1101.299577660101 416.6255674123989Q1110.0308325404371 416.6255674123989 1115.5655602103452 411.9491664934392Q1121.1002878802533 407.2431681003089 1121.1002878802533 400.2285667218694L1121.1002878802533 400.2285667218694Q1121.1002878802533 393.18436786925923 1115.6839501070276 389.6622684429542Q1110.2380148596317 386.16976649081977 1098.517415088062 382.11491252944336L1098.517415088062 382.11491252944336Q1088.720651137583 378.71120299982084 1082.6531689326039 375.5146757893927Q1076.556089253454 372.31814857896455 1072.294052972883 366.3394587964971Q1068.032016692312 360.36076901402976 1068.032016692312 351.0079671761104L1068.032016692312 351.0079671761104Q1068.032016692312 338.2218583343979 1077.5328059010844 330.9704771625934Q1087.0039976356866 323.71909599078884 1103.637778119581 323.71909599078884L1103.637778119581 323.71909599078884Q1112.5762153191113 323.71909599078884 1120.1531687067927 326.5012585628281Q1127.700524620304 329.2538236606968 1132.1993406942397 334.04861447633897Q1136.6685592940048 338.8434052919812 1136.6685592940048 344.6149127552542L1136.6685592940048 344.6149127552542Q1136.6685592940048 355.68436809507006 1126.8717953435262 355.68436809507006L1126.8717953435262 355.68436809507006Q1122.8169413821497 355.68436809507006 1120.1531687067927 354.2932868090504Q1117.4893960314362 352.9022055230308 1115.3583778911507 349.9424581059677L1115.3583778911507 349.9424581059677Q1118.9692697399678 347.3674778531228 1118.9692697399678 342.2471148216037L1118.9692697399678 342.2471148216037Q1118.9692697399678 337.77789622183843 1114.1744789243257 335.0253311239698Q1109.3796881086832 332.2431685519305 1102.365086730244 332.2431685519305L1102.365086730244 332.2431685519305Q1093.841014169102 332.2431685519305 1088.9278334567775 336.0908401941125Q1084.014652744453 339.9089143621239 1084.014652744453 346.50915110217454L1084.014652744453 346.50915110217454Q1084.014652744453 351.8366964528881 1087.3295698515635 355.3587958791931Q1090.644486958674 358.8808953054982 1095.3208878776336 361.0119134457836Q1099.9972887965932 363.14293158606904 1108.7581411511 366.13227647730275L1108.7581411511 366.13227647730275Q1117.9037606698248 369.53598600692527 1123.7640605556098 372.7325132173534Q1129.6243604413949 375.92904042778156 1133.6792144027713 381.582157994372Q1137.7340683641478 387.23527556096246 1137.7340683641478 395.9665304412986L1137.7340683641478 395.9665304412986Q1137.7340683641478 410.2325129915426 1127.700524620304 418.2238310176129Q1117.6965783506307 426.2151490436832 1099.5829241582046 426.2151490436832L1099.5829241582046 426.2151490436832Z " fill="#f6b042" transform="matrix(0.7690725678299097,0,0,0.76907256782991,0,29.73073372880137)"/></g></svg>